# xmcd
#
# Track frame offsets:
#	150
#	23364
#	43008
#	56514
#	72758
#	92007
#	102792
#	114785
#	134131
#	147011
#	160770
#	174868
#	184573
#	201813
#	217074
#	245431
#	260042
#
# Disc length: 3619 seconds
#
# Revision: 0
# Processed by: cddbd v1.4PL0 Copyright (c) Steve Scherf et al.
# Submitted via: EasyCDDAExtractor 4.6.0.1
#
DISCID=e50e2111
DTITLE=Various Artist - Great Black Gospel Music -- CD1
DYEAR=1111
DGENRE=Gospel
TTITLE0=Oh happy day -- Edwin Hawkins Singers
TTITLE1=Goodness of jesus -- Rev. Charles Smith
TTITLE2=Stand the Storm -- Shirley Caesar
TTITLE3=Baptized believier -- Voices of the white rock
TTITLE4=Oh to the kept Jesus -- James Cleveland
TTITLE5=I love him -- Christ Tabernackle Choir
TTITLE6=The Journey -- Rev. Billy Robison
TTITLE7=Old ship of Zion -- Milton Brunson
TTITLE8=Rapture -- Shirley Caesar
TTITLE9=Happy on my way -- James Cleveland
TTITLE10=He will fix it -- Albertina Walker
TTITLE11=Close to thee -- Milton Brunson
TTITLE12=I've got a long way to go -- Shirley Caesar
TTITLE13=Never let go -- James Austin
TTITLE14=I believe, think about -- Albertina Walker
TTITLE15=Christ is comming back again --  James Cleveland
TTITLE16=Living for Jesus -- Five Blind Boys of Alabama
EXTD=
EXTT0=
EXTT1=
EXTT2=
EXTT3=
EXTT4=
EXTT5=
EXTT6=
EXTT7=
EXTT8=
EXTT9=
EXTT10=
EXTT11=
EXTT12=
EXTT13=
EXTT14=
EXTT15=
EXTT16=
PLAYORDER=
